<svg width="60" height="60" viewBox="0 0 60 60" fill="none" xmlns="http://www.w3.org/2000/svg">
<path d="M19.5899 12.024C20.9262 9.69629 23.0043 7.88378 25.492 6.8762C27.9797 5.86861 30.7334 5.72412 33.3129 6.46582C35.8924 7.20752 38.1488 8.79258 39.7214 10.9677C41.2939 13.1427 42.0919 15.7822 41.9878 18.4642C41.8836 21.1462 40.8833 23.7159 39.1468 25.7624C37.4103 27.809 35.0378 29.2143 32.4085 29.7537C29.7793 30.2931 27.0451 29.9355 24.643 28.738C22.2409 27.5405 20.3096 25.5723 19.1579 23.148C18.3884 23.7109 17.4593 24.0136 16.5059 24.012H15.0059V24.777C15.0059 25.347 15.2219 25.866 15.5759 26.259C15.8784 25.917 16.2779 25.6753 16.7212 25.5661C17.1645 25.4568 17.6305 25.4852 18.0573 25.6474C18.4841 25.8097 18.8513 26.0981 19.1101 26.4742C19.3689 26.8504 19.5069 27.2964 19.5059 27.753C19.5056 28.0665 19.4399 28.3766 19.3128 28.6632C19.1857 28.9499 19.0002 29.2068 18.768 29.4175C18.5358 29.6283 18.2621 29.7881 17.9645 29.8869C17.6669 29.9856 17.352 30.0211 17.0399 29.991C15.6887 29.9436 14.4087 29.3735 13.4697 28.4008C12.5306 27.4282 12.0058 26.129 12.0059 24.777V13.521C12.0059 13.1232 12.1639 12.7416 12.4452 12.4603C12.7265 12.179 13.108 12.021 13.5059 12.021H19.5059L19.5899 12.024ZM21.0059 18.357C21.0993 20.7112 22.1122 22.9348 23.827 24.5505C25.5418 26.1661 27.8217 27.045 30.1773 26.9982C32.5329 26.9515 34.7762 25.9829 36.4255 24.3005C38.0749 22.6181 38.9988 20.356 38.9988 18C38.9988 15.644 38.0749 13.3819 36.4255 11.6995C34.7762 10.0171 32.5329 9.0485 30.1773 9.00177C27.8217 8.95503 25.5418 9.83385 23.827 11.4495C22.1122 13.0652 21.0993 15.2888 21.0059 17.643V18.357ZM18.0059 17.586V15.021H15.0059V21.012H16.5059C16.9037 21.012 17.2852 20.854 17.5665 20.5727C17.8478 20.2914 18.0059 19.9098 18.0059 19.512V18.414C17.9965 18.1381 17.9965 17.8619 18.0059 17.586Z" fill="white"/>
<path d="M9 39C9 35.661 11.709 33 15.027 33H45C46.5913 33 48.1174 33.6321 49.2426 34.7574C50.3679 35.8826 51 37.4087 51 39C51 44.073 48.501 47.898 44.595 50.391C40.749 52.842 35.565 54 30 54C24.435 54 19.251 52.842 15.405 50.391C11.499 47.901 9 44.07 9 39ZM15.027 36C13.344 36 12 37.341 12 39C12 42.927 13.866 45.852 17.019 47.859C20.229 49.908 24.795 51 30 51C35.205 51 39.771 49.908 42.981 47.859C46.131 45.849 48 42.93 48 39C48 38.2044 47.6839 37.4413 47.1213 36.8787C46.5587 36.3161 45.7957 36 45 36H15.027Z" fill="white"/>
</svg>
