<svg width="52" height="52" viewBox="0 0 52 52" fill="none" xmlns="http://www.w3.org/2000/svg">
<g clip-path="url(#clip0_95_1142)">
<path d="M52.0001 16.8997L13.9577 33.0977C10.8031 34.4323 8.15325 35.1018 6.01042 35.1018C3.58375 35.1018 1.82225 34.2525 0.730251 32.5517C0.0434183 31.4597 -0.158082 30.0752 0.123585 28.396C0.405251 26.7168 1.15492 24.9293 2.36825 23.027C3.38008 21.4887 5.03758 19.4672 7.34508 16.9603C6.56241 18.1924 5.98847 19.5453 5.64642 20.9643C5.03975 23.5535 5.58575 25.4537 7.28442 26.667C8.09258 27.2325 9.20408 27.5163 10.6211 27.5163C11.7521 27.5163 13.0261 27.3343 14.4431 26.9703L52.0001 16.8997Z" fill="#D8D8D8"/>
</g>
<defs>
<clipPath id="clip0_95_1142">
<rect width="52" height="52" fill="white"/>
</clipPath>
</defs>
</svg>
