<svg width="60" height="55" viewBox="0 0 60 55" fill="none" xmlns="http://www.w3.org/2000/svg">
<g clip-path="url(#clip0_95_1144)" filter="url(#filter0_d_95_1144)">
<path d="M55.6642 6.51722C54.7607 5.36238 53.1812 6.28755 52.4857 6.69055C47.5371 9.60688 46.8069 14.7419 45.0822 17.6907C43.7259 20.0524 41.5029 21.7857 39.4922 21.9201C38.0059 22.0262 36.3939 21.7381 34.7949 21.0426C30.8797 19.3504 28.7716 17.1599 28.2581 16.7742C27.2029 15.9726 19.0931 8.07505 12.4847 7.75222C12.4847 7.75222 11.6787 6.12722 11.4772 6.09905C10.9962 6.04488 10.5022 7.07622 10.1426 7.18455C9.81756 7.29938 9.24773 6.07522 8.91839 6.12938C8.58689 6.17272 8.26406 7.39905 7.61839 8.02955C7.14173 8.49105 6.56539 8.46289 6.23823 9.03272C6.12556 9.24072 6.16456 9.60689 6.03673 9.94272C5.76156 10.6361 4.84289 10.7097 4.83423 11.4529C4.83423 12.2784 5.60773 12.4366 6.28373 13.0129C6.82106 13.4722 6.85789 13.7972 7.48406 14.0117C8.04306 14.2024 8.85339 13.6066 9.57273 13.8211C10.1729 13.9966 10.7492 14.1244 10.8771 14.7376C10.9941 15.2922 10.8771 16.1632 10.1404 16.0657C9.89773 16.0332 8.84473 15.6887 7.54473 15.8274C5.97389 15.9942 4.17989 16.4969 4.00439 18.2324C3.91556 19.2009 5.11806 20.3341 6.29023 20.1087C7.09406 19.9549 6.71489 19.0124 7.15473 18.5574C7.73323 17.9724 10.9941 20.6027 14.0274 20.6027C15.3122 20.6027 16.2612 20.2777 17.2059 19.2919C17.2926 19.2291 17.4074 19.0709 17.5417 19.0536C17.6924 19.0926 17.8353 19.1571 17.9642 19.2442C20.4147 21.1877 22.2629 25.0942 31.2459 25.1397C32.5069 25.1549 33.9542 25.7442 35.1372 26.8232C36.1772 27.7614 36.7926 29.2607 37.3841 30.7774C38.2897 33.0589 39.8996 35.2602 42.3501 37.7172C42.4801 37.8646 44.4951 39.4072 44.6467 39.522C44.6727 39.5437 44.8287 39.8839 44.7616 40.0746C44.7182 41.5696 44.4951 45.8596 47.7191 46.0394C48.5121 46.0827 48.3149 45.5389 48.3149 45.1511C48.3041 44.4122 48.1741 43.6669 48.5597 42.8977C49.1079 41.8621 47.4201 41.3615 47.4569 39.0931C47.4981 37.3944 46.0594 37.6826 45.3249 36.3847C44.9132 35.6416 44.5276 35.2321 44.5666 34.3351C44.7247 29.1784 43.4464 25.7811 42.8224 24.9599C42.3306 24.3229 41.9059 24.0867 42.3739 23.7899C45.0606 22.024 45.6781 20.3796 45.6781 20.3796C47.1081 17.0407 48.3994 13.9987 50.1739 12.6446C50.5336 12.3846 51.4501 11.6912 52.0199 11.4312C53.6731 10.6469 54.5614 10.1789 55.0272 9.72388C55.7986 8.99372 56.4031 7.44238 55.6642 6.51722Z" fill="#D8D8D8"/>
</g>
<defs>
<filter id="filter0_d_95_1144" x="0" y="0" width="60" height="60" filterUnits="userSpaceOnUse" color-interpolation-filters="sRGB">
<feFlood flood-opacity="0" result="BackgroundImageFix"/>
<feColorMatrix in="SourceAlpha" type="matrix" values="0 0 0 0 0 0 0 0 0 0 0 0 0 0 0 0 0 0 127 0" result="hardAlpha"/>
<feOffset dy="4"/>
<feGaussianBlur stdDeviation="2"/>
<feComposite in2="hardAlpha" operator="out"/>
<feColorMatrix type="matrix" values="0 0 0 0 0 0 0 0 0 0 0 0 0 0 0 0 0 0 0.25 0"/>
<feBlend mode="normal" in2="BackgroundImageFix" result="effect1_dropShadow_95_1144"/>
<feBlend mode="normal" in="SourceGraphic" in2="effect1_dropShadow_95_1144" result="shape"/>
</filter>
<clipPath id="clip0_95_1144">
<rect width="52" height="52" fill="white" transform="translate(4)"/>
</clipPath>
</defs>
</svg>
