<svg width="52" height="52" viewBox="0 0 52 52" fill="none" xmlns="http://www.w3.org/2000/svg">
<path d="M32.4805 24.8735C38.4453 22.4902 42.159 21.1209 52 18.7202C46.6548 19.0734 34.8357 19.8837 26.689 21.474L32.4805 24.8757V24.8735ZM13.9338 32.7862H21.7338C23.2787 30.4462 24.8148 29.3065 26.6045 28.039C25.2453 27.5135 23.8787 27.0072 22.5052 26.5202C17.5283 28.7172 14.7593 31.666 13.9403 32.7862H13.9338ZM15.4765 24.2755C8.5215 26.7607 4.65617 29.4604 2.04533 32.7862H10.6578C11.4963 31.6184 14.6922 28.2514 20.696 25.9092C18.9677 25.3262 17.2267 24.7815 15.4743 24.2755H15.4765ZM19.045 19.0409H0C19.201 22.5075 28.4548 26.9709 43.3333 33.2802C42.0615 32.329 21.5562 20.252 19.0472 19.0409" fill="#DF042A"/>
</svg>
